<svg width="39" height="39" viewBox="0 0 39 39" fill="none" xmlns="http://www.w3.org/2000/svg">
<path fill-rule="evenodd" clip-rule="evenodd" d="M13.65 10.9989C16.3424 10.9989 18.525 8.81629 18.525 6.1239C18.525 3.43151 16.3424 1.2489 13.65 1.2489C10.9576 1.2489 8.77503 3.43151 8.77503 6.1239C8.77503 8.81629 10.9576 10.9989 13.65 10.9989ZM4.875 18.799C7.56739 18.799 9.75 16.6163 9.75 13.924C9.75 11.2316 7.56739 9.04896 4.875 9.04896C2.18261 9.04896 0 11.2316 0 13.924C0 16.6163 2.18261 18.799 4.875 18.799ZM30.225 6.1239C30.225 8.81629 28.0424 10.9989 25.35 10.9989C22.6576 10.9989 20.475 8.81629 20.475 6.1239C20.475 3.43151 22.6576 1.2489 25.35 1.2489C28.0424 1.2489 30.225 3.43151 30.225 6.1239ZM34.125 18.799C36.8174 18.799 39 16.6163 39 13.924C39 11.2316 36.8174 9.04896 34.125 9.04896C31.4326 9.04896 29.25 11.2316 29.25 13.924C29.25 16.6163 31.4326 18.799 34.125 18.799ZM28.1654 22.3199L28.1658 22.3203C28.7305 22.9858 29.3042 23.662 29.9131 24.3759C30.064 24.5269 30.217 24.6788 30.3712 24.8318L30.3739 24.8345L30.3742 24.8348C32.8278 27.2708 35.5711 29.9945 35.0026 33.7359C34.4371 35.7054 33.0136 37.6944 30.4591 38.2599C29.804 38.3855 28.488 38.2138 26.7869 37.9918C24.7916 37.7314 22.2665 37.4019 19.6561 37.4019H19.3051C16.7167 37.4019 14.212 37.7315 12.2248 37.993C10.4992 38.2201 9.16367 38.3958 8.50208 38.2599C5.94758 37.6944 4.52408 35.7249 3.95858 33.7359C3.40864 30.0146 6.15022 27.2928 8.60301 24.8577C8.75935 24.7025 8.91452 24.5485 9.06758 24.3954C10.1673 23.1207 11.1469 21.9661 12.1553 20.7777L12.1554 20.7775L12.1557 20.7771L12.1561 20.7768L12.1568 20.776C12.7213 20.1106 13.2949 19.4346 13.9036 18.7209C14.8201 17.6679 15.9511 16.6149 17.3161 16.1469C17.5306 16.0689 17.7451 16.0104 17.9596 15.9714C18.4666 15.8739 18.9931 15.8739 19.5001 15.8739C20.0071 15.8739 20.5336 15.8739 21.0211 15.9519C21.2356 15.9909 21.4501 16.0494 21.6646 16.1274C23.0296 16.5954 24.1801 17.6484 25.0771 18.7014C26.1771 19.9764 27.1569 21.1312 28.1654 22.3199ZM17.5501 22.6988H21.4501V26.5989H25.35V30.4989H21.4501V34.3988H17.5501V30.4989H13.65V26.5989H17.5501V22.6988Z" fill="black"/>
</svg>
